<mxfile host="app.diagrams.net" modified="2022-07-25T15:27:12.257Z" agent="5.0 (Macintosh; Intel Mac OS X 10_15_7) AppleWebKit/605.1.15 (KHTML, like Gecko) Version/15.5 Safari/605.1.15" etag="D9DDeLrX1ojcGoIuag_k" version="20.2.0" type="github">
  <diagram id="zTItZL9wTKK4X7dXP2Oj" name="Страница 1">
    <mxGraphModel dx="1129" dy="770" grid="1" gridSize="10" guides="1" tooltips="1" connect="1" arrows="1" fold="1" page="1" pageScale="1" pageWidth="827" pageHeight="1169" math="0" shadow="0">
      <root>
        <mxCell id="0" />
        <mxCell id="1" parent="0" />
        <mxCell id="taa9uCPGDnzsBaroi36O-1" value="Пользователи" style="text;html=1;strokeColor=none;fillColor=none;align=center;verticalAlign=middle;whiteSpace=wrap;rounded=0;fontStyle=1" vertex="1" parent="1">
          <mxGeometry x="50" y="20" width="60" height="30" as="geometry" />
        </mxCell>
        <mxCell id="taa9uCPGDnzsBaroi36O-2" value="displayName: String" style="text;html=1;strokeColor=none;fillColor=none;align=center;verticalAlign=middle;whiteSpace=wrap;rounded=0;" vertex="1" parent="1">
          <mxGeometry x="60" y="72" width="60" height="30" as="geometry" />
        </mxCell>
        <mxCell id="taa9uCPGDnzsBaroi36O-3" value="seenOnboarding: Bool" style="text;html=1;strokeColor=none;fillColor=none;align=center;verticalAlign=middle;whiteSpace=wrap;rounded=0;" vertex="1" parent="1">
          <mxGeometry x="60" y="102" width="60" height="30" as="geometry" />
        </mxCell>
        <mxCell id="taa9uCPGDnzsBaroi36O-4" value="Ответы на анкету" style="text;html=1;strokeColor=none;fillColor=none;align=center;verticalAlign=middle;whiteSpace=wrap;rounded=0;" vertex="1" parent="1">
          <mxGeometry x="60" y="260" width="60" height="30" as="geometry" />
        </mxCell>
        <mxCell id="taa9uCPGDnzsBaroi36O-5" value="ответыНаВопрос1: [String]" style="text;html=1;strokeColor=none;fillColor=none;align=center;verticalAlign=middle;whiteSpace=wrap;rounded=0;" vertex="1" parent="1">
          <mxGeometry x="100" y="290" width="60" height="30" as="geometry" />
        </mxCell>
        <mxCell id="taa9uCPGDnzsBaroi36O-6" value="На кого подписан: [authorId]" style="text;html=1;strokeColor=none;fillColor=none;align=center;verticalAlign=middle;whiteSpace=wrap;rounded=0;" vertex="1" parent="1">
          <mxGeometry x="30" y="222" width="120" height="30" as="geometry" />
        </mxCell>
        <mxCell id="taa9uCPGDnzsBaroi36O-7" value="avatarURL: String" style="text;html=1;strokeColor=none;fillColor=none;align=center;verticalAlign=middle;whiteSpace=wrap;rounded=0;" vertex="1" parent="1">
          <mxGeometry x="60" y="132" width="60" height="30" as="geometry" />
        </mxCell>
        <mxCell id="taa9uCPGDnzsBaroi36O-8" value="lastLogin: Date" style="text;html=1;strokeColor=none;fillColor=none;align=center;verticalAlign=middle;whiteSpace=wrap;rounded=0;" vertex="1" parent="1">
          <mxGeometry x="60" y="162" width="60" height="30" as="geometry" />
        </mxCell>
        <mxCell id="taa9uCPGDnzsBaroi36O-9" value="историяПоиска:[String]" style="text;html=1;strokeColor=none;fillColor=none;align=center;verticalAlign=middle;whiteSpace=wrap;rounded=0;" vertex="1" parent="1">
          <mxGeometry x="60" y="192" width="60" height="30" as="geometry" />
        </mxCell>
        <mxCell id="taa9uCPGDnzsBaroi36O-11" value="Список поиска по баркоду, которые не нашлись в базе" style="text;html=1;strokeColor=none;fillColor=none;align=center;verticalAlign=middle;whiteSpace=wrap;rounded=0;fontStyle=1" vertex="1" parent="1">
          <mxGeometry x="470" y="20" width="150" height="30" as="geometry" />
        </mxCell>
        <mxCell id="taa9uCPGDnzsBaroi36O-12" value="Продукты" style="text;html=1;strokeColor=none;fillColor=none;align=center;verticalAlign=middle;whiteSpace=wrap;rounded=0;fontStyle=1" vertex="1" parent="1">
          <mxGeometry x="280" y="20" width="60" height="30" as="geometry" />
        </mxCell>
        <mxCell id="taa9uCPGDnzsBaroi36O-13" value="ID" style="text;html=1;strokeColor=none;fillColor=none;align=center;verticalAlign=middle;whiteSpace=wrap;rounded=0;" vertex="1" parent="1">
          <mxGeometry x="300" y="50" width="60" height="30" as="geometry" />
        </mxCell>
        <mxCell id="taa9uCPGDnzsBaroi36O-14" value="ID" style="text;html=1;strokeColor=none;fillColor=none;align=center;verticalAlign=middle;whiteSpace=wrap;rounded=0;" vertex="1" parent="1">
          <mxGeometry x="60" y="50" width="60" height="30" as="geometry" />
        </mxCell>
        <mxCell id="taa9uCPGDnzsBaroi36O-15" value="barcode: String?" style="text;html=1;strokeColor=none;fillColor=none;align=center;verticalAlign=middle;whiteSpace=wrap;rounded=0;" vertex="1" parent="1">
          <mxGeometry x="300" y="80" width="60" height="30" as="geometry" />
        </mxCell>
        <mxCell id="taa9uCPGDnzsBaroi36O-16" value="imageURL: String" style="text;html=1;strokeColor=none;fillColor=none;align=center;verticalAlign=middle;whiteSpace=wrap;rounded=0;" vertex="1" parent="1">
          <mxGeometry x="300" y="110" width="60" height="30" as="geometry" />
        </mxCell>
        <mxCell id="taa9uCPGDnzsBaroi36O-17" value="authorID: String?" style="text;html=1;strokeColor=none;fillColor=none;align=center;verticalAlign=middle;whiteSpace=wrap;rounded=0;" vertex="1" parent="1">
          <mxGeometry x="300" y="140" width="60" height="30" as="geometry" />
        </mxCell>
        <mxCell id="taa9uCPGDnzsBaroi36O-18" value="brand: String?" style="text;html=1;strokeColor=none;fillColor=none;align=center;verticalAlign=middle;whiteSpace=wrap;rounded=0;" vertex="1" parent="1">
          <mxGeometry x="300" y="170" width="60" height="30" as="geometry" />
        </mxCell>
        <mxCell id="taa9uCPGDnzsBaroi36O-19" value="description: String" style="text;html=1;strokeColor=none;fillColor=none;align=center;verticalAlign=middle;whiteSpace=wrap;rounded=0;" vertex="1" parent="1">
          <mxGeometry x="300" y="200" width="60" height="30" as="geometry" />
        </mxCell>
        <mxCell id="taa9uCPGDnzsBaroi36O-20" value="description_eng: String?" style="text;html=1;strokeColor=none;fillColor=none;align=center;verticalAlign=middle;whiteSpace=wrap;rounded=0;" vertex="1" parent="1">
          <mxGeometry x="300" y="230" width="60" height="30" as="geometry" />
        </mxCell>
        <mxCell id="taa9uCPGDnzsBaroi36O-21" value="name: String" style="text;html=1;strokeColor=none;fillColor=none;align=center;verticalAlign=middle;whiteSpace=wrap;rounded=0;" vertex="1" parent="1">
          <mxGeometry x="300" y="260" width="60" height="30" as="geometry" />
        </mxCell>
        <mxCell id="taa9uCPGDnzsBaroi36O-22" value="price_category: PriceEnum?" style="text;html=1;strokeColor=none;fillColor=none;align=center;verticalAlign=middle;whiteSpace=wrap;rounded=0;" vertex="1" parent="1">
          <mxGeometry x="300" y="290" width="60" height="30" as="geometry" />
        </mxCell>
        <mxCell id="taa9uCPGDnzsBaroi36O-23" value="Реакция на продукт" style="text;html=1;strokeColor=none;fillColor=none;align=center;verticalAlign=middle;whiteSpace=wrap;rounded=0;fontStyle=1" vertex="1" parent="1">
          <mxGeometry x="255" y="370" width="90" height="30" as="geometry" />
        </mxCell>
        <mxCell id="taa9uCPGDnzsBaroi36O-24" value="ответыНаВопрос2" style="text;html=1;strokeColor=none;fillColor=none;align=center;verticalAlign=middle;whiteSpace=wrap;rounded=0;" vertex="1" parent="1">
          <mxGeometry x="100" y="320" width="60" height="30" as="geometry" />
        </mxCell>
        <mxCell id="taa9uCPGDnzsBaroi36O-25" value="ответыНаВопрос3" style="text;html=1;strokeColor=none;fillColor=none;align=center;verticalAlign=middle;whiteSpace=wrap;rounded=0;" vertex="1" parent="1">
          <mxGeometry x="100" y="350" width="60" height="30" as="geometry" />
        </mxCell>
        <mxCell id="taa9uCPGDnzsBaroi36O-26" value="ID" style="text;html=1;strokeColor=none;fillColor=none;align=center;verticalAlign=middle;whiteSpace=wrap;rounded=0;" vertex="1" parent="1">
          <mxGeometry x="270" y="400" width="60" height="30" as="geometry" />
        </mxCell>
        <mxCell id="taa9uCPGDnzsBaroi36O-27" value="authorId" style="text;html=1;strokeColor=none;fillColor=none;align=center;verticalAlign=middle;whiteSpace=wrap;rounded=0;" vertex="1" parent="1">
          <mxGeometry x="270" y="430" width="60" height="30" as="geometry" />
        </mxCell>
        <mxCell id="taa9uCPGDnzsBaroi36O-28" value="productId" style="text;html=1;strokeColor=none;fillColor=none;align=center;verticalAlign=middle;whiteSpace=wrap;rounded=0;" vertex="1" parent="1">
          <mxGeometry x="270" y="460" width="60" height="30" as="geometry" />
        </mxCell>
        <mxCell id="taa9uCPGDnzsBaroi36O-29" value="reaction_type" style="text;html=1;strokeColor=none;fillColor=none;align=center;verticalAlign=middle;whiteSpace=wrap;rounded=0;" vertex="1" parent="1">
          <mxGeometry x="270" y="490" width="60" height="30" as="geometry" />
        </mxCell>
        <mxCell id="taa9uCPGDnzsBaroi36O-30" value="Списки продуктов" style="text;html=1;strokeColor=none;fillColor=none;align=center;verticalAlign=middle;whiteSpace=wrap;rounded=0;fontStyle=1" vertex="1" parent="1">
          <mxGeometry x="480" y="370" width="60" height="30" as="geometry" />
        </mxCell>
        <mxCell id="taa9uCPGDnzsBaroi36O-31" value="ID" style="text;html=1;strokeColor=none;fillColor=none;align=center;verticalAlign=middle;whiteSpace=wrap;rounded=0;" vertex="1" parent="1">
          <mxGeometry x="480" y="400" width="60" height="30" as="geometry" />
        </mxCell>
        <mxCell id="taa9uCPGDnzsBaroi36O-32" value="authorId" style="text;html=1;strokeColor=none;fillColor=none;align=center;verticalAlign=middle;whiteSpace=wrap;rounded=0;" vertex="1" parent="1">
          <mxGeometry x="480" y="430" width="60" height="30" as="geometry" />
        </mxCell>
        <mxCell id="taa9uCPGDnzsBaroi36O-33" value="name" style="text;html=1;strokeColor=none;fillColor=none;align=center;verticalAlign=middle;whiteSpace=wrap;rounded=0;" vertex="1" parent="1">
          <mxGeometry x="480" y="460" width="60" height="30" as="geometry" />
        </mxCell>
        <mxCell id="taa9uCPGDnzsBaroi36O-34" value="[ProductId]" style="text;html=1;strokeColor=none;fillColor=none;align=center;verticalAlign=middle;whiteSpace=wrap;rounded=0;" vertex="1" parent="1">
          <mxGeometry x="480" y="490" width="60" height="30" as="geometry" />
        </mxCell>
        <mxCell id="taa9uCPGDnzsBaroi36O-35" value="barcodes: [String]" style="text;html=1;strokeColor=none;fillColor=none;align=center;verticalAlign=middle;whiteSpace=wrap;rounded=0;" vertex="1" parent="1">
          <mxGeometry x="490" y="60" width="150" height="20" as="geometry" />
        </mxCell>
        <mxCell id="taa9uCPGDnzsBaroi36O-36" value="Комментарии" style="text;html=1;strokeColor=none;fillColor=none;align=center;verticalAlign=middle;whiteSpace=wrap;rounded=0;fontStyle=1" vertex="1" parent="1">
          <mxGeometry x="660" y="370" width="60" height="30" as="geometry" />
        </mxCell>
        <mxCell id="taa9uCPGDnzsBaroi36O-37" value="ID" style="text;html=1;strokeColor=none;fillColor=none;align=center;verticalAlign=middle;whiteSpace=wrap;rounded=0;" vertex="1" parent="1">
          <mxGeometry x="660" y="400" width="60" height="30" as="geometry" />
        </mxCell>
        <mxCell id="taa9uCPGDnzsBaroi36O-39" value="authorId" style="text;html=1;strokeColor=none;fillColor=none;align=center;verticalAlign=middle;whiteSpace=wrap;rounded=0;" vertex="1" parent="1">
          <mxGeometry x="660" y="430" width="60" height="30" as="geometry" />
        </mxCell>
        <mxCell id="taa9uCPGDnzsBaroi36O-40" value="productId" style="text;html=1;strokeColor=none;fillColor=none;align=center;verticalAlign=middle;whiteSpace=wrap;rounded=0;" vertex="1" parent="1">
          <mxGeometry x="660" y="460" width="60" height="30" as="geometry" />
        </mxCell>
        <mxCell id="taa9uCPGDnzsBaroi36O-41" value="text" style="text;html=1;strokeColor=none;fillColor=none;align=center;verticalAlign=middle;whiteSpace=wrap;rounded=0;" vertex="1" parent="1">
          <mxGeometry x="660" y="490" width="60" height="30" as="geometry" />
        </mxCell>
        <mxCell id="taa9uCPGDnzsBaroi36O-42" value="Клики по кнопке &quot;Купить&quot;" style="text;html=1;strokeColor=none;fillColor=none;align=center;verticalAlign=middle;whiteSpace=wrap;rounded=0;fontStyle=1" vertex="1" parent="1">
          <mxGeometry x="700" y="20" width="100" height="30" as="geometry" />
        </mxCell>
        <mxCell id="taa9uCPGDnzsBaroi36O-43" value="ID == ID продукта" style="text;html=1;strokeColor=none;fillColor=none;align=center;verticalAlign=middle;whiteSpace=wrap;rounded=0;" vertex="1" parent="1">
          <mxGeometry x="675" y="55" width="150" height="20" as="geometry" />
        </mxCell>
        <mxCell id="taa9uCPGDnzsBaroi36O-44" value="Количество кликов: Int" style="text;html=1;strokeColor=none;fillColor=none;align=center;verticalAlign=middle;whiteSpace=wrap;rounded=0;" vertex="1" parent="1">
          <mxGeometry x="675" y="80" width="150" height="20" as="geometry" />
        </mxCell>
        <mxCell id="taa9uCPGDnzsBaroi36O-45" value="Действия пользователя" style="text;html=1;strokeColor=none;fillColor=none;align=center;verticalAlign=middle;whiteSpace=wrap;rounded=0;fontStyle=1" vertex="1" parent="1">
          <mxGeometry x="35" y="550" width="90" height="30" as="geometry" />
        </mxCell>
        <mxCell id="taa9uCPGDnzsBaroi36O-46" value="&lt;span style=&quot;font-weight: normal;&quot;&gt;Реакция на продукт / удалить реакцию&lt;/span&gt;" style="text;html=1;strokeColor=none;fillColor=none;align=center;verticalAlign=middle;whiteSpace=wrap;rounded=0;fontStyle=1" vertex="1" parent="1">
          <mxGeometry x="50" y="585" width="170" height="30" as="geometry" />
        </mxCell>
        <mxCell id="taa9uCPGDnzsBaroi36O-47" value="&lt;span style=&quot;font-weight: normal;&quot;&gt;Написать / удалить комментарий&lt;/span&gt;" style="text;html=1;strokeColor=none;fillColor=none;align=center;verticalAlign=middle;whiteSpace=wrap;rounded=0;fontStyle=1" vertex="1" parent="1">
          <mxGeometry x="50" y="630" width="170" height="30" as="geometry" />
        </mxCell>
        <mxCell id="taa9uCPGDnzsBaroi36O-48" value="&lt;span style=&quot;font-weight: normal;&quot;&gt;Подписаться на кого-то&lt;/span&gt;" style="text;html=1;strokeColor=none;fillColor=none;align=center;verticalAlign=middle;whiteSpace=wrap;rounded=0;fontStyle=1" vertex="1" parent="1">
          <mxGeometry x="50" y="680" width="170" height="30" as="geometry" />
        </mxCell>
        <mxCell id="taa9uCPGDnzsBaroi36O-49" value="&lt;span style=&quot;font-weight: normal;&quot;&gt;Создать/удалить список&lt;/span&gt;" style="text;html=1;strokeColor=none;fillColor=none;align=center;verticalAlign=middle;whiteSpace=wrap;rounded=0;fontStyle=1" vertex="1" parent="1">
          <mxGeometry x="50" y="710" width="170" height="30" as="geometry" />
        </mxCell>
        <mxCell id="taa9uCPGDnzsBaroi36O-50" value="&lt;span style=&quot;font-weight: normal;&quot;&gt;Удалить/добавить продукт из/в список&lt;/span&gt;" style="text;html=1;strokeColor=none;fillColor=none;align=center;verticalAlign=middle;whiteSpace=wrap;rounded=0;fontStyle=1" vertex="1" parent="1">
          <mxGeometry x="50" y="740" width="170" height="30" as="geometry" />
        </mxCell>
        <mxCell id="taa9uCPGDnzsBaroi36O-51" value="&lt;span style=&quot;font-weight: 400;&quot;&gt;Заполнить анкету онбординга&lt;/span&gt;" style="text;html=1;strokeColor=none;fillColor=none;align=center;verticalAlign=middle;whiteSpace=wrap;rounded=0;fontStyle=1" vertex="1" parent="1">
          <mxGeometry x="50" y="780" width="170" height="30" as="geometry" />
        </mxCell>
        <mxCell id="taa9uCPGDnzsBaroi36O-52" value="&lt;span style=&quot;font-weight: 400;&quot;&gt;Добавить свой продукт в базу&lt;/span&gt;" style="text;html=1;strokeColor=none;fillColor=none;align=center;verticalAlign=middle;whiteSpace=wrap;rounded=0;fontStyle=1" vertex="1" parent="1">
          <mxGeometry x="50" y="820" width="170" height="30" as="geometry" />
        </mxCell>
        <mxCell id="taa9uCPGDnzsBaroi36O-53" value="&lt;span style=&quot;font-weight: 400;&quot;&gt;Добавить аватарку / сменить displayName&lt;/span&gt;" style="text;html=1;strokeColor=none;fillColor=none;align=center;verticalAlign=middle;whiteSpace=wrap;rounded=0;fontStyle=1" vertex="1" parent="1">
          <mxGeometry x="50" y="860" width="170" height="30" as="geometry" />
        </mxCell>
        <mxCell id="taa9uCPGDnzsBaroi36O-54" value="Действия админа" style="text;html=1;strokeColor=none;fillColor=none;align=center;verticalAlign=middle;whiteSpace=wrap;rounded=0;fontStyle=1" vertex="1" parent="1">
          <mxGeometry x="320" y="555" width="90" height="30" as="geometry" />
        </mxCell>
        <mxCell id="taa9uCPGDnzsBaroi36O-55" value="&lt;span style=&quot;font-weight: normal;&quot;&gt;Добавить/отредактировать новые/существующие продукты&lt;/span&gt;" style="text;html=1;strokeColor=none;fillColor=none;align=center;verticalAlign=middle;whiteSpace=wrap;rounded=0;fontStyle=1" vertex="1" parent="1">
          <mxGeometry x="320" y="600" width="170" height="30" as="geometry" />
        </mxCell>
        <mxCell id="taa9uCPGDnzsBaroi36O-56" value="&lt;span style=&quot;font-weight: normal;&quot;&gt;Удалить данные о пользователе&lt;/span&gt;" style="text;html=1;strokeColor=none;fillColor=none;align=center;verticalAlign=middle;whiteSpace=wrap;rounded=0;fontStyle=1" vertex="1" parent="1">
          <mxGeometry x="320" y="650" width="170" height="30" as="geometry" />
        </mxCell>
        <mxCell id="taa9uCPGDnzsBaroi36O-57" value="&lt;span style=&quot;font-weight: normal;&quot;&gt;Удалить/отредактировать коммент, продукт, список&lt;/span&gt;" style="text;html=1;strokeColor=none;fillColor=none;align=center;verticalAlign=middle;whiteSpace=wrap;rounded=0;fontStyle=1" vertex="1" parent="1">
          <mxGeometry x="320" y="700" width="170" height="30" as="geometry" />
        </mxCell>
        <mxCell id="taa9uCPGDnzsBaroi36O-58" value="Локализация???" style="text;html=1;strokeColor=none;fillColor=none;align=center;verticalAlign=middle;whiteSpace=wrap;rounded=0;fontStyle=1" vertex="1" parent="1">
          <mxGeometry x="110" y="1160" width="90" height="30" as="geometry" />
        </mxCell>
        <mxCell id="taa9uCPGDnzsBaroi36O-59" value="Чтение всех продуктов, пользователей, комментов, реакций, списков происходит при каждом запуске приложения" style="text;html=1;strokeColor=none;fillColor=none;align=center;verticalAlign=middle;whiteSpace=wrap;rounded=0;fontStyle=1" vertex="1" parent="1">
          <mxGeometry x="50" y="960" width="210" height="30" as="geometry" />
        </mxCell>
        <mxCell id="taa9uCPGDnzsBaroi36O-60" value="Редактирование/удаление - редко делает пользователь" style="text;html=1;strokeColor=none;fillColor=none;align=center;verticalAlign=middle;whiteSpace=wrap;rounded=0;fontStyle=1" vertex="1" parent="1">
          <mxGeometry x="50" y="1020" width="210" height="30" as="geometry" />
        </mxCell>
        <mxCell id="taa9uCPGDnzsBaroi36O-61" value="Новые продукты редко добавляет админ большой пачкой" style="text;html=1;strokeColor=none;fillColor=none;align=center;verticalAlign=middle;whiteSpace=wrap;rounded=0;fontStyle=1" vertex="1" parent="1">
          <mxGeometry x="50" y="1070" width="210" height="30" as="geometry" />
        </mxCell>
        <mxCell id="taa9uCPGDnzsBaroi36O-63" value="Поиск по barcode или description или название продукта" style="text;html=1;strokeColor=none;fillColor=none;align=center;verticalAlign=middle;whiteSpace=wrap;rounded=0;fontStyle=1" vertex="1" parent="1">
          <mxGeometry x="50" y="1120" width="210" height="30" as="geometry" />
        </mxCell>
      </root>
    </mxGraphModel>
  </diagram>
</mxfile>
